<mxfile host="app.diagrams.net" modified="2024-06-16T13:09:11.398Z" agent="Mozilla/5.0 (Linux; U; Android 11; zh-cn; M2004J7AC Build/RP1A.200720.011) AppleWebKit/537.36 (KHTML, like Gecko) Version/4.0 Chrome/109.0.5414.118 Mobile Safari/537.36 XiaoMi/MiuiBrowser/17.8.90928 swan-mibrowser" version="24.5.4" etag="hmHirSIz0xugslQskPo2" type="github">
  <diagram name="第 1 页" id="tBxPU_gYc4melkehIe_o">
    <mxGraphModel>
      <root>
        <mxCell id="0" />
        <mxCell id="1" parent="0" />
      </root>
    </mxGraphModel>
  </diagram>
</mxfile>
